<svg width="32" height="32" viewBox="0 0 32 32" fill="none" xmlns="http://www.w3.org/2000/svg">
  <defs>
    <linearGradient id="faviconGradient" x1="0%" y1="0%" x2="100%" y2="100%">
      <stop offset="0%" style="stop-color:#3B82F6;stop-opacity:1" />
      <stop offset="50%" style="stop-color:#8B5CF6;stop-opacity:1" />
      <stop offset="100%" style="stop-color:#06B6D4;stop-opacity:1" />
    </linearGradient>
  </defs>
  
  <!-- Background -->
  <rect width="32" height="32" rx="6" fill="url(#faviconGradient)"/>
  
  <!-- Blueprint grid pattern -->
  <g opacity="0.2">
    <line x1="6" y1="6" x2="26" y2="6" stroke="white" stroke-width="0.5"/>
    <line x1="6" y1="10" x2="26" y2="10" stroke="white" stroke-width="0.5"/>
    <line x1="6" y1="14" x2="26" y2="14" stroke="white" stroke-width="0.5"/>
    <line x1="6" y1="18" x2="26" y2="18" stroke="white" stroke-width="0.5"/>
    <line x1="6" y1="22" x2="26" y2="22" stroke="white" stroke-width="0.5"/>
    <line x1="6" y1="26" x2="26" y2="26" stroke="white" stroke-width="0.5"/>
    
    <line x1="6" y1="6" x2="6" y2="26" stroke="white" stroke-width="0.5"/>
    <line x1="10" y1="6" x2="10" y2="26" stroke="white" stroke-width="0.5"/>
    <line x1="14" y1="6" x2="14" y2="26" stroke="white" stroke-width="0.5"/>
    <line x1="18" y1="6" x2="18" y2="26" stroke="white" stroke-width="0.5"/>
    <line x1="22" y1="6" x2="22" y2="26" stroke="white" stroke-width="0.5"/>
    <line x1="26" y1="6" x2="26" y2="26" stroke="white" stroke-width="0.5"/>
  </g>
  
  <!-- Central symbol -->
  <g transform="translate(16, 16)">
    <!-- Code brackets -->
    <path d="M-5 -3 L-7 -1 L-7 1 L-5 3" fill="none" stroke="white" stroke-width="1.5" stroke-linecap="round"/>
    <path d="M5 -3 L7 -1 L7 1 L5 3" fill="none" stroke="white" stroke-width="1.5" stroke-linecap="round"/>
    
    <!-- AI neural network nodes -->
    <circle cx="-2" cy="-1" r="1" fill="white"/>
    <circle cx="0" cy="-2.5" r="1" fill="white"/>
    <circle cx="2" cy="-1" r="1" fill="white"/>
    <circle cx="-1" cy="1.5" r="1" fill="white"/>
    <circle cx="1.5" cy="2.5" r="1" fill="white"/>
    
    <!-- Neural connections -->
    <line x1="-2" y1="-1" x2="0" y2="-2.5" stroke="white" stroke-width="0.8" opacity="0.7"/>
    <line x1="0" y1="-2.5" x2="2" y2="-1" stroke="white" stroke-width="0.8" opacity="0.7"/>
    <line x1="-2" y1="-1" x2="-1" y2="1.5" stroke="white" stroke-width="0.8" opacity="0.7"/>
    <line x1="2" y1="-1" x2="1.5" y2="2.5" stroke="white" stroke-width="0.8" opacity="0.7"/>
    <line x1="-1" y1="1.5" x2="1.5" y2="2.5" stroke="white" stroke-width="0.8" opacity="0.7"/>
  </g>
</svg>