<svg width="32" height="32" viewBox="0 0 32 32" fill="none" xmlns="http://www.w3.org/2000/svg">
  <defs>
    <linearGradient id="primaryGradient" x1="0%" y1="0%" x2="100%" y2="100%">
      <stop offset="0%" style="stop-color:#3B82F6" />
      <stop offset="100%" style="stop-color:#8B5CF6" />
    </linearGradient>
    <linearGradient id="accentGradient" x1="0%" y1="0%" x2="100%" y2="100%">
      <stop offset="0%" style="stop-color:#06B6D4" />
      <stop offset="100%" style="stop-color:#3B82F6" />
    </linearGradient>
  </defs>
  
  <!-- Background -->
  <rect width="32" height="32" rx="6" fill="url(#primaryGradient)"/>
  
  <!-- Code Brackets -->
  <path d="M 8 10 L 6 10 L 4 16 L 6 22 L 8 22" 
        fill="none" 
        stroke="white" 
        stroke-width="1.5" 
        stroke-linecap="round"/>
  <path d="M 24 10 L 26 10 L 28 16 L 26 22 L 24 22" 
        fill="none" 
        stroke="white" 
        stroke-width="1.5" 
        stroke-linecap="round"/>
  
  <!-- Central AI Core -->
  <circle cx="16" cy="16" r="6" fill="none" stroke="white" stroke-width="1" opacity="0.8"/>
  <circle cx="16" cy="16" r="2.5" fill="white"/>
  
  <!-- Neural Nodes -->
  <circle cx="12" cy="12" r="1" fill="white" opacity="0.9"/>
  <circle cx="20" cy="12" r="1" fill="white" opacity="0.9"/>
  <circle cx="12" cy="20" r="1" fill="white" opacity="0.9"/>
  <circle cx="20" cy="20" r="1" fill="white" opacity="0.9"/>
  
  <!-- Connecting Lines -->
  <line x1="12" y1="12" x2="16" y2="16" stroke="white" stroke-width="0.5" opacity="0.6"/>
  <line x1="20" y1="12" x2="16" y2="16" stroke="white" stroke-width="0.5" opacity="0.6"/>
  <line x1="12" y1="20" x2="16" y2="16" stroke="white" stroke-width="0.5" opacity="0.6"/>
  <line x1="20" y1="20" x2="16" y2="16" stroke="white" stroke-width="0.5" opacity="0.6"/>
</svg>